<?xml version="1.0" encoding="UTF-8"?>
<svg width="120px" height="120px" viewBox="0 0 120 120" version="1.1" xmlns="http://www.w3.org/2000/svg" xmlns:xlink="http://www.w3.org/1999/xlink">
    <!-- Generator: Sketch 46.2 (44496) - http://www.bohemiancoding.com/sketch -->
    <title>iOS - App Icon</title>
    <desc>Created with Sketch.</desc>
    <defs></defs>
    <g id="Symbols" stroke="none" stroke-width="1" fill="none" fill-rule="evenodd">
        <g id="iOS---App-Icon">
            <rect id="Base" fill="#FFFFFF" x="0" y="0" width="120" height="120"></rect>
            <g id="imb-logo" transform="translate(5.256104, 5.256104)">
                <circle id="Oval" fill="#FFFFFF" fill-rule="nonzero" cx="54.3252132" cy="54.3252132" r="50.4741889"></circle>
                <rect id="Rectangle-path" fill="#F8F1DE" fill-rule="nonzero" transform="translate(82.186823, 25.079892) rotate(-83.171335) translate(-82.186823, -25.079892) " x="72.8033924" y="21.0011945" width="18.7668622" height="8.15739418"></rect>
                <rect id="Rectangle-path" fill="#F8F1DE" fill-rule="nonzero" transform="translate(70.846696, 23.714343) rotate(-83.171335) translate(-70.846696, -23.714343) " x="61.4632648" y="19.6356455" width="18.7668622" height="8.15739418"></rect>
                <rect id="Rectangle-path" fill="#F8F1DE" fill-rule="nonzero" transform="translate(59.091410, 22.310932) rotate(-83.171335) translate(-59.091410, -22.310932) " x="49.7079792" y="18.2322348" width="18.7668622" height="8.15739418"></rect>
                <path d="M72.8736886,41.2635905 L73.5534757,35.5096786 L65.4445872,34.5385543 L63.7936758,48.2314078 C66.4399897,45.5365377 69.5718658,42.9873362 72.8736886,41.2635905 Z" id="Shape" fill="#F8F1DE" fill-rule="nonzero"></path>
                <rect id="Rectangle-path" fill="#F8F1DE" fill-rule="nonzero" transform="translate(56.601023, 42.917582) rotate(-83.171335) translate(-56.601023, -42.917582) " x="47.2175914" y="38.8388845" width="18.7668622" height="8.15739418"></rect>
                <rect id="Rectangle-path" fill="#F8F1DE" fill-rule="nonzero" transform="translate(22.279903, 38.825117) rotate(-83.171335) translate(-22.279903, -38.825117) " x="12.8964722" y="33.6174945" width="18.7668622" height="10.4152444"></rect>
                <rect id="Rectangle-path" fill="#F8F1DE" fill-rule="nonzero" transform="translate(41.234555, 30.628158) rotate(-83.171335) translate(-41.234555, -30.628158) " x="21.4722966" y="21.244727" width="39.524517" height="18.7668622"></rect>
                <path d="M83.6531691,39.5155666 L84.1630094,39.6612353 L84.527181,39.7826258 L84.8670745,36.8449746 L76.7581861,35.8738503 L76.296902,39.7826258 C78.8218253,39.0057263 81.3224706,38.8357796 83.6531691,39.5155666 Z" id="Shape" fill="#F8F1DE" fill-rule="nonzero"></path>
                <path d="M83.191885,41.0450875 C71.1499429,37.4276493 51.5089526,61.2201962 56.1703495,70.8100493 C60.8317465,80.3999024 71.1984991,83.7988377 62.3127111,90.7909332 C53.4269232,97.7830286 55.5876749,100.987739 62.943942,101.861751 C70.300209,102.735763 105.115018,90.8880456 101.958863,68.0909011 C98.8027092,45.2937566 91.9320043,43.6671233 83.191885,41.0450875 Z" id="Shape" fill="#97DAF3" fill-rule="nonzero"></path>
                <path d="M89.5527496,28.7603643 C88.6544596,34.3200513 95.0638804,37.7675428 99.5796087,46.483384 C101.764638,50.6834968 103.148491,57.384255 104.022503,63.2110012 C104.532343,60.3219062 104.799402,57.3599769 104.799402,54.3252132 C104.799402,42.9873362 101.060573,32.5234712 94.7725431,24.0989673 C92.0048386,24.6573638 89.9897556,26.1140504 89.5527496,28.7603643 Z" id="Shape" fill="#B2E8A5" fill-rule="nonzero"></path>
                <circle id="Oval" fill="#FFFFFF" fill-rule="nonzero" cx="41.6520402" cy="48.5227451" r="9.41990635"></circle>
                <path d="M36.1166314,24.3174703 C23.6619614,27.6678494 16.2571381,40.4624129 19.6075171,52.9170829 C22.9336181,65.3717529 54.7864973,93.9956436 54.7864973,93.9956436 C54.7864973,93.9956436 68.066623,53.2812545 64.7162439,40.8265845 C61.3658649,28.3719145 48.5713014,20.9913694 36.1166314,24.3174703 L36.1166314,24.3174703 Z M44.7596382,56.5830774 C40.268188,57.7969828 35.6310692,55.1263908 34.4171637,50.6106625 C33.2032583,46.1192123 35.8738503,41.4820935 40.3895786,40.268188 C44.9053069,39.0542826 49.5181476,41.7248746 50.7320531,46.2406029 L50.7320531,46.2406029 C51.9216804,50.7320531 49.2510884,55.3691719 44.7596382,56.5830774 L44.7596382,56.5830774 Z" id="Shape"></path>
                <path d="M54.3252132,104.799402 C56.8986928,104.799402 59.4236161,104.605177 61.8757052,104.241006 C61.0745276,104.168171 50.052266,103.172769 47.6487332,97.6130818 C45.148088,91.8348919 53.6454262,93.3158565 54.5194381,86.1295362 C55.0292784,81.856589 47.7215675,71.854008 31.6494593,71.0771085 C20.5058072,70.5429901 11.7171317,50.1979347 5.18632031,42.6231646 C4.31230838,46.3862715 3.8267462,50.2950471 3.8267462,54.3252132 C3.8267462,82.1964825 26.4539439,104.799402 54.3252132,104.799402 Z" id="Shape" fill="#B2E8A5" fill-rule="nonzero"></path>
                <path d="M28.7846424,28.1291335 L31.0182284,9.53210184 C26.8181156,11.7171317 22.9578962,14.4848361 19.5346828,17.7381027 L18.4421679,26.8909499 L28.7846424,28.1291335 Z" id="Shape" fill="#F8F1DE" fill-rule="nonzero"></path>
                <path d="M36.1166314,24.3174703 C23.6619614,27.6678494 16.2571381,40.4624129 19.6075171,52.9170829 C22.9336181,65.3717529 54.7864973,93.9956436 54.7864973,93.9956436 C54.7864973,93.9956436 68.066623,53.2812545 64.7162439,40.8265845 C61.3658649,28.3719145 48.5713014,20.9913694 36.1166314,24.3174703 L36.1166314,24.3174703 Z M44.7596382,56.5830774 C40.268188,57.7969828 35.6310692,55.1263908 34.4171637,50.6106625 C33.2032583,46.1192123 35.8738503,41.4820935 40.3895786,40.268188 C44.9053069,39.0542826 49.5181476,41.7248746 50.7320531,46.2406029 L50.7320531,46.2406029 C51.9216804,50.7320531 49.2510884,55.3691719 44.7596382,56.5830774 L44.7596382,56.5830774 Z" id="Shape" fill="#EE6867" fill-rule="nonzero"></path>
                <path d="M64.7162439,40.8265845 C62.4098236,32.2321339 55.4420062,25.7013225 46.7261651,23.9775768 C41.821987,28.9545892 38.4473298,35.2426194 37.0391995,42.0647681 C40.5595253,39.0057263 45.8764312,39.369898 48.935473,42.8902238 C51.9945147,46.4105496 51.6303431,51.7274555 48.1100173,54.7864973 C44.7353601,57.7241485 39.6369572,57.5056455 36.5050811,54.276657 C36.5050811,54.3737694 36.5293592,54.4708819 36.5293592,54.5922724 C38.1074363,68.7221319 45.6336501,82.2450387 51.8731242,91.3007735 C53.6939824,93.0002411 54.7864973,93.9956436 54.7864973,93.9956436 C54.7864973,93.9956436 68.0423449,53.2812545 64.7162439,40.8265845 Z" id="Shape" fill="#AF4F4F" fill-rule="nonzero" opacity="0.5"></path>
                <circle id="Oval" fill="#FFFFFF" fill-rule="nonzero" cx="67.7510076" cy="48.5227451" r="9.41990635"></circle>
                <path d="M74.6459906,24.5602514 C62.2398768,21.0156475 49.3239227,28.1776897 45.7550407,40.5838034 L45.7550407,40.5838034 C42.2104368,52.9899172 54.7622192,93.9228092 54.7622192,93.9228092 C54.7622192,93.9228092 87.1006606,65.8573151 90.6452645,53.4512013 C94.2141465,41.0693656 87.0278262,28.1291335 74.6459906,24.5602514 Z M65.4445872,56.6801898 C60.9774151,55.39345 58.3796574,50.707775 59.6663972,46.2406029 C60.953137,41.7734308 65.6388121,39.1756731 70.1059842,40.4624129 C74.5731562,41.7491527 77.1709139,46.4105496 75.8841741,50.9019998 C74.5974344,55.3691719 69.9117593,57.9669296 65.4445872,56.6801898 L65.4445872,56.6801898 Z" id="Shape" fill="#EE6867" fill-rule="nonzero"></path>
                <path d="M54.3252132,3.8267462 C48.1585735,3.8267462 42.2832711,4.91926111 36.8206965,6.95862228 L81.4924174,11.7656879 C73.6505881,6.74011929 64.3277942,3.8267462 54.3252132,3.8267462 Z" id="Shape" fill="#FFD0DA" fill-rule="nonzero"></path>
                <path d="M54.3252132,3.8267462 C82.1964825,3.8267462 104.799402,26.4296658 104.799402,54.3252132 C104.799402,82.2207606 82.1964825,104.799402 54.3252132,104.799402 C26.4539439,104.799402 3.8267462,82.1964825 3.8267462,54.3252132 C3.8267462,26.4539439 26.4296658,3.8267462 54.3252132,3.8267462 L54.3252132,3.8267462 Z M54.3252132,0.670592006 C24.681642,0.670592006 0.670592006,24.7059201 0.670592006,54.3252132 C0.670592006,75.8841741 13.5865461,95.3552177 33.4460394,103.731165 C60.734634,115.263267 92.2233416,102.468704 103.755443,75.180109 C115.287545,47.8915143 102.492982,16.4270848 75.2043871,4.894983 L75.2043871,4.894983 C68.6007414,2.10300045 61.4872554,0.646313897 54.3252132,0.670592006 Z" id="Shape" fill="#97DAF3" fill-rule="nonzero"></path>
            </g>
        </g>
    </g>
</svg>